# xmcd CD database file
#
# Track frame offsets:
#	150
#	37697
#	55982
#	71402
#	93420
#	109207
#	120012
#
# Disc length: 2087 seconds
#
# Revision: 0
# Processed by: cddbd v1.5.1PL0 Copyright (c) Steve Scherf et al.
# Submitted via: CDex 1.51
#
DISCID=4d082507
DTITLE=BARNEY KESSEL - ON FIRE
DYEAR=1965
DGENRE=Jazz
TTITLE0=Slow Burn
TTITLE1=Just in Time
TTITLE2=The Shadow of Your Smile
TTITLE3=Recado Bossa Nova(Gift Of Love)
TTITLE4=Sweet Baby
TTITLE5=Who Can I Turn To
TTITLE6=One Mint Julep
EXTD=YEAR: 1965
EXTT0=
EXTT1=
EXTT2=
EXTT3=
EXTT4=
EXTT5=
EXTT6=
PLAYORDER=
